HIERARCHY
ROOT Hips
{
 OFFSET 0.000000 0.000000 0.000000
 CHANNELS 6 Xposition Yposition Zposition Yrotation Xrotation Zrotation
 JOINT Chest
 {
  OFFSET 0.000000 9.585900 0.002600
  CHANNELS 3 Yrotation Xrotation Zrotation
  JOINT Chest2
  {
   OFFSET 0.000000 9.601200 -0.005300
   CHANNELS 3 Yrotation Xrotation Zrotation
   JOINT Chest3
   {
    OFFSET 0.000000 9.561800 0.000000
    CHANNELS 3 Yrotation Xrotation Zrotation
    JOINT Chest4
    {
     OFFSET 0.000000 9.552100 0.000000
     CHANNELS 3 Yrotation Xrotation Zrotation
     JOINT Neck
     {
      OFFSET 0.000000 14.453000 0.000000
      CHANNELS 3 Yrotation Xrotation Zrotation
      JOINT Head
      {
       OFFSET 0.000000 8.936500 -0.011300
       CHANNELS 3 Yrotation Xrotation Zrotation
       End Site
       {
        OFFSET 0.000000 17.073600 -0.006000
       }
      }
     }
     JOINT RightCollar
     {
      OFFSET -2.921100 9.558500 0.000000
      CHANNELS 3 Yrotation Xrotation Zrotation
      JOINT RightShoulder
      {
       OFFSET -13.519700 0.000000 0.000000
       CHANNELS 3 Yrotation Xrotation Zrotation
       JOINT RightElbow
       {
        OFFSET 0.000000 -29.696600 0.000000
        CHANNELS 3 Yrotation Xrotation Zrotation
        JOINT RightWrist
        {
         OFFSET 0.000000 -24.004700 0.000000
         CHANNELS 3 Yrotation Xrotation Zrotation
         End Site
         {
          OFFSET 0.000000 -17.728500 0.000000
         }
        }
       }
      }
     }
     JOINT LeftCollar
     {
      OFFSET 2.921100 9.558500 0.000000
      CHANNELS 3 Yrotation Xrotation Zrotation
      JOINT LeftShoulder
      {
       OFFSET 13.519700 0.000000 0.000000
       CHANNELS 3 Yrotation Xrotation Zrotation
       JOINT LeftElbow
       {
        OFFSET 0.000000 -29.696600 0.000000
        CHANNELS 3 Yrotation Xrotation Zrotation
        JOINT LeftWrist
        {
         OFFSET 0.000000 -24.004700 0.000000
         CHANNELS 3 Yrotation Xrotation Zrotation
         End Site
         {
          OFFSET 0.000000 -17.728500 0.000000
         }
        }
       }
      }
     }
    }
   }
  }
 }
 JOINT RightHip
 {
  OFFSET -7.771700 -0.012900 -0.001300
  CHANNELS 3 Yrotation Xrotation Zrotation
  JOINT RightKnee
  {
   OFFSET 0.000000 -40.869800 0.001200
   CHANNELS 3 Yrotation Xrotation Zrotation
   JOINT RightAnkle
   {
    OFFSET 0.000000 -39.717900 0.002100
    CHANNELS 3 Yrotation Xrotation Zrotation
    JOINT RightToe
    {
     OFFSET 0.000000 -4.965400 11.033500
     CHANNELS 3 Yrotation Xrotation Zrotation
     End Site
     {
      OFFSET 0.000000 -1.423100 5.872300
     }
    }
   }
  }
 }
 JOINT LeftHip
 {
  OFFSET 7.771700 -0.012900 -0.001300
  CHANNELS 3 Yrotation Xrotation Zrotation
  JOINT LeftKnee
  {
   OFFSET 0.000000 -40.869800 0.001200
   CHANNELS 3 Yrotation Xrotation Zrotation
   JOINT LeftAnkle
   {
    OFFSET 0.000000 -39.717900 0.002100
    CHANNELS 3 Yrotation Xrotation Zrotation
    JOINT LeftToe
    {
     OFFSET 0.000000 -4.965400 11.033500
     CHANNELS 3 Yrotation Xrotation Zrotation
     End Site
     {
      OFFSET 0.000000 -1.423100 5.872300
     }
    }
   }
  }
 }
}
MOTION
Frames: 12
Frame Time: 0.008333
0.000000 85.388000 0.000000 0.000000 -5.767877 0.000000 0.000000 11.653817 0.000000 0.000000 -5.885947 0.000000 0.000000 -0.000000 0.000000 0.000000 -0.000000 0.000000 0.000000 12.528835 0.000000 0.000000 0.711642 0.000000 0.000000 -0.000000 0.000000 0.000000 0.000000 -90.000000 0.000000 -2.309062 0.000000 0.000000 2.309062 0.000000 0.000000 -0.000000 0.000000 0.000000 -0.000000 90.000000 0.000000 -2.309062 0.000000 0.000000 2.309062 0.000000 0.000000 8.520406 0.000000 0.000000 1.905762 0.000000 -0.000000 -4.658285 0.000000 0.000000 -0.000000 0.000000 0.000000 8.520406 0.000000 0.000000 1.905762 0.000000 -0.000000 -4.658285 0.000000 0.000000 -0.000000 0.000000
-5.650188 52.996710 17.294319 -179.438508 -12.564887 -2.926742 -1.051649 16.283024 1.465983 -0.121700 1.638887 0.162781 -0.200868 2.740850 0.270342 -0.927397 14.432251 1.337955 3.688828 16.248248 1.366038 3.584709 -8.610247 0.602127 5.210947 -4.038998 -4.933799 9.648833 -24.292535 1.521141 -98.769932 -45.218671 144.625629 -20.274755 -9.364902 3.026271 -6.636216 -4.331865 4.368594 -2.305315 -29.917824 -2.959291 76.721729 -33.405840 -135.510391 15.326048 -13.183373 -5.508254 3.673184 -65.635609 10.313544 168.447111 85.905267 168.376304 -12.896803 -22.659046 12.354668 0.010628 -0.004167 -0.046971 0.177646 -64.291374 -0.255600 123.166621 77.203240 121.716952 -4.927851 -20.804512 -2.399702 0.037597 0.072714 0.027644
-5.648891 52.995241 17.290496 -179.448759 -12.663309 -2.934862 -1.028269 16.173628 1.478522 -0.118732 1.606806 0.160941 -0.196184 2.689328 0.267616 -0.913859 14.310304 1.340231 3.644325 16.252041 1.372404 3.535369 -8.607711 0.618753 5.164461 -3.868710 -4.770847 9.635991 -24.297163 1.452881 -98.523897 -45.212285 144.437545 -20.284537 -9.366123 2.910690 -6.598731 -4.083377 4.239123 -2.286329 -29.975565 -2.857944 76.588597 -33.346454 -135.442173 15.330859 -13.146731 -5.524801 3.730365 -65.539970 10.234675 167.876614 85.888539 167.793457 -12.475329 -22.694487 12.277020 0.025062 -0.025651 -0.049010 0.166397 -64.208497 -0.223828 123.262098 77.199685 121.810955 -4.921734 -20.788913 -2.403324 0.035080 0.054505 0.029970
-5.650637 52.990400 17.300537 -179.453793 -12.691818 -2.926575 -1.019321 16.023323 1.479150 -0.115766 1.579516 0.159852 -0.191439 2.645436 0.265977 -0.897585 14.205273 1.346584 3.594155 16.232717 1.367609 3.482355 -8.630142 0.624853 5.121303 -3.724616 -4.639102 9.630024 -24.318072 1.391509 -98.254372 -45.235861 144.195506 -20.304882 -9.383303 2.889172 -6.578311 -3.882971 4.136681 -2.234076 -29.979198 -2.792694 76.459775 -33.304224 -135.396211 15.341025 -13.096610 -5.547242 3.812519 -65.530814 10.190542 168.262547 85.899431 168.237146 -12.652704 -22.667435 12.295812 0.013910 -0.011725 -0.028573 0.184914 -64.185132 -0.240309 123.246314 77.212653 121.802159 -4.919124 -20.777099 -2.411466 0.042984 0.060894 0.030823
-5.654350 52.985517 17.311580 -179.464474 -12.727925 -2.907092 -1.003499 15.917827 1.472889 -0.112585 1.559476 0.159524 -0.186240 2.613274 0.265575 -0.875840 14.127671 1.356578 3.534618 16.177366 1.348595 3.422288 -8.691412 0.617956 5.076028 -3.636365 -4.531782 9.646576 -24.351963 1.327782 -98.043340 -45.290590 143.964716 -20.315502 -9.388638 2.891905 -6.572232 -3.764239 4.074711 -2.231711 -29.894478 -2.773941 76.424367 -33.336173 -135.405670 15.355928 -13.034529 -5.571460 3.873182 -65.518226 10.221826 169.396942 85.926663 169.460682 -13.245154 -22.604508 12.383034 -0.014629 0.021690 0.001117 0.215301 -64.163665 -0.274332 123.259050 77.200318 121.809915 -4.915395 -20.761237 -2.404809 0.037281 0.055627 0.019942
-5.657254 52.981075 17.323980 -179.476852 -12.767106 -2.893955 -0.978905 15.852685 1.476092 -0.109542 1.547289 0.159971 -0.181201 2.593645 0.266573 -0.878886 14.150268 1.354795 3.495981 16.012261 1.317721 3.356561 -8.795400 0.595217 5.058412 -3.685983 -4.444761 9.701741 -24.389842 1.255173 -97.919969 -45.379659 143.778793 -20.303199 -9.395885 2.880610 -6.541955 -3.803046 4.062748 -2.125834 -29.824312 -2.782564 76.288621 -33.325810 -135.377213 15.365835 -12.969945 -5.595906 4.012291 -65.503412 10.125058 169.628802 85.934617 169.742424 -13.345108 -22.578933 12.401001 -0.020852 0.022063 0.007268 0.225481 -64.136731 -0.285322 123.203098 77.192263 121.746446 -4.912765 -20.739041 -2.405535 0.037662 0.059933 0.016168
-5.657921 52.978937 17.331563 -179.486704 -12.845151 -2.896596 -0.948120 15.855790 1.498760 -0.117175 1.574129 0.151817 -0.167074 2.552760 0.278157 -0.880852 14.149564 1.348303 3.451583 15.860821 1.282763 3.290828 -8.936763 0.555150 5.042337 -3.749163 -4.369562 9.795769 -24.424152 1.173129 -97.880583 -45.498866 143.637833 -20.277033 -9.401186 2.861660 -6.507537 -3.867197 4.066460 -2.051620 -29.729279 -2.802763 76.188292 -33.347369 -135.359542 15.368068 -12.910798 -5.620135 4.159196 -65.445800 9.998115 169.524694 85.929350 169.660829 -13.126471 -22.578970 12.372956 -0.011548 0.001717 0.003799 0.212271 -64.072847 -0.269244 123.150664 77.178593 121.696260 -4.913964 -20.714092 -2.413458 0.036474 0.053571 0.014802
-5.661623 52.974842 17.352715 -179.466218 -12.846238 -2.887662 -0.954363 15.799511 1.507211 -0.125473 1.593509 0.142513 -0.154567 2.531684 0.292395 -0.857137 14.104079 1.362765 3.376013 15.749767 1.227885 3.231151 -9.101582 0.501519 5.004605 -3.791521 -4.318444 9.912454 -24.453468 1.085035 -97.892414 -45.637658 143.523273 -20.249288 -9.393880 2.843322 -6.484509 -3.915829 4.051936 -2.061317 -29.631058 -2.816429 76.164306 -33.410442 -135.342035 15.369455 -12.858132 -5.642747 4.182956 -65.457973 9.972795 169.653485 85.944214 169.783108 -13.125430 -22.556419 12.371008 -0.046732 0.004037 0.007427 0.213814 -64.084195 -0.309943 122.984430 77.181901 121.546611 -4.932577 -20.697558 -2.432647 0.061413 0.081777 0.023229
-5.660753 52.973177 17.369944 -179.471856 -12.879318 -2.899648 -0.929321 15.791954 1.538140 -0.122311 1.581366 0.149253 -0.146964 2.530813 0.293207 -0.814534 14.070420 1.414599 3.277142 15.632707 1.135686 3.177725 -9.269389 0.444615 4.950795 -3.849384 -4.303431 10.029296 -24.477313 0.992151 -97.903321 -45.780485 143.408624 -20.225195 -9.368769 2.837015 -6.467058 -3.977884 4.006528 -2.128463 -29.554778 -2.812242 76.177075 -33.482449 -135.307664 15.367788 -12.811046 -5.663793 4.212363 -65.440224 9.967818 169.426415 85.946901 169.553359 -13.015741 -22.556416 12.347391 -0.044208 0.001674 0.008283 0.195983 -64.065794 -0.293404 122.895024 77.179549 121.468387 -4.913560 -20.649364 -2.432178 0.045168 0.063583 0.009277
-5.661640 52.974612 17.378201 -179.445302 -12.971162 -2.906305 -0.945624 15.871345 1.543316 -0.078606 1.489360 0.170730 -0.161882 2.570499 0.280443 -0.784593 14.061224 1.440040 3.204833 15.502098 1.070403 3.126538 -9.420843 0.397199 4.901221 -3.924339 -4.256967 10.130408 -24.492497 0.892405 -97.869252 -45.910169 143.277812 -20.203025 -9.329186 2.847310 -6.442111 -4.039761 3.988604 -2.242351 -29.497939 -2.781378 76.209524 -33.551093 -135.255086 15.358838 -12.771992 -5.685509 4.221899 -65.347329 9.914725 168.613572 85.932999 168.695065 -12.621992 -22.598209 12.277742 0.001865 -0.009993 0.001521 0.174539 -63.994856 -0.324343 122.784206 77.156063 121.370910 -4.889965 -20.602812 -2.439324 0.021491 0.046495 -0.000826
-5.661655 52.975977 17.390308 -179.425791 -13.043441 -2.912437 -0.931316 15.877989 1.561922 -0.063683 1.453310 0.165197 -0.165705 2.582103 0.278946 -0.760615 14.050388 1.450764 3.149065 15.388073 1.027733 3.075739 -9.543050 0.364606 4.847643 -3.979940 -4.180362 10.207269 -24.495623 0.786297 -97.769403 -46.020901 143.129081 -20.185607 -9.283799 2.867190 -6.418021 -4.070379 3.981552 -2.387541 -29.450252 -2.721982 76.250190 -33.607066 -135.191283 15.345190 -12.740389 -5.705061 4.233251 -65.276830 9.886582 167.989928 85.930634 168.046219 -12.401235 -22.629242 12.232205 0.010640 -0.004899 0.003510 0.147265 -63.932555 -0.328499 122.666801 77.153260 121.258396 -4.880174 -20.568044 -2.442464 0.016438 0.041073 -0.001614
-5.664851 52.976111 17.408345 -179.393052 -13.080256 -2.897232 -0.911547 15.752669 1.550283 -0.089514 1.508147 0.166817 -0.161645 2.572079 0.279627 -0.739684 14.025911 1.459990 3.100366 15.305662 0.994034 3.030762 -9.631431 0.339969 4.798148 -4.001067 -4.094465 10.255848 -24.486420 0.678696 -97.603117 -46.117563 142.968402 -20.169398 -9.244125 2.879770 -6.383431 -4.055758 3.964908 -2.542527 -29.405442 -2.648638 76.284991 -33.646075 -135.126893 15.328923 -12.709652 -5.718047 4.287107 -65.248153 9.848368 168.043685 85.946290 168.125488 -12.596997 -22.617930 12.258867 -0.015169 0.015379 0.015454 0.143797 -63.903977 -0.377627 122.556810 77.155012 121.146626 -4.871627 -20.548151 -2.442755 0.014957 0.052019 -0.004936
